<?xml version="1.0" encoding="UTF-8"?>
<svg width="212px" height="49px" viewBox="0 0 212 49" version="1.1" xmlns="http://www.w3.org/2000/svg" xmlns:xlink="http://www.w3.org/1999/xlink">
    <!-- Generator: Sketch 52.4 (67378) - http://www.bohemiancoding.com/sketch -->
    <title>Blow Out Go Out-Logo</title>
    <desc>Created with Sketch.</desc>
    <g id="Homepage" stroke="none" stroke-width="1" fill="none" fill-rule="evenodd">
        <g id="Homepage-Main" transform="translate(-614.000000, -23.000000)" fill="#FFFFFF">
            <g id="Blow-Out-Go-Out-Logo" transform="translate(614.000000, 23.000000)">
                <path d="M58.5914334,21.4747968 C63.6263426,17.4068943 67.2723113,14.9774823 71.5548169,14.9774823 C72.7991065,14.9774823 73.8118451,15.6554661 73.8118451,16.7289106 C73.8118451,19.3278185 69.9922588,22.9437913 62.9607477,25.6557262 C64.0314198,23.508748 65.2467427,21.4183279 66.3462901,19.8645854 C66.4168316,19.7861022 66.4576932,19.686389 66.4620656,19.5820624 C66.4620656,19.1866016 65.7675954,18.9605476 64.9863163,18.9605476 C64.1471953,18.9605476 63.163332,19.2147915 62.8450636,19.7515584 C60.7326861,23.1696669 58.0127386,29.2150517 57.1736176,32.6332495 C57.0980948,32.9215687 57.0401209,33.2139998 57,33.5090082 C57,33.8480001 57.2604263,34.0456858 58.0127386,34.0456858 C64.957441,34.0456858 71.4391327,29.8648456 71.4391327,26.8703876 C71.4391327,25.7121952 70.4842362,25.1472384 68.9796116,25.1472384 C68.3464886,25.1611298 67.7163778,25.2368284 67.0986938,25.3732033 C73.4647014,22.7460163 77.544714,19.1018537 77.544714,16.5594146 C77.544714,14.2147506 75.2587191,13.1413061 72.422996,13.1413061 C67.4170535,13.1413061 62.3531776,15.6837451 57.5498194,20.0623604 C57.413513,20.1857411 57.3394674,20.3612598 57.3472351,20.5425691 C57.3472351,21.0227779 57.8102457,21.5878238 58.2442896,21.5878238 C58.3697515,21.5894586 58.4920928,21.5496253 58.5914334,21.4747968 Z M62.9897144,27.7461464 C63.0696659,27.7407401 63.1480165,27.721625 63.221174,27.6896775 C64.72589,26.8986667 65.8544041,26.5879539 66.6067164,26.5879539 C67.4169622,26.5879539 67.7930726,26.9551356 67.7930726,27.4919025 C67.7930726,28.9326179 65.0441584,31.7010218 60.1829581,32.2659785 C60.5880353,30.8535421 61.3403476,29.0173659 62.2374021,27.1246316 C62.4110197,27.4636234 62.671446,27.7461464 62.9897144,27.7461464 Z M73.0484761,34.3623756 C74.5723814,34.3623756 76.1059727,33.0271045 77.2532193,31.6663197 C77.2027444,31.3083723 77.1999187,30.9455536 77.2448125,30.5868983 C75.8943421,32.0509863 74.7897689,32.6402969 73.8023419,32.8009612 C73.8480307,32.3103151 74.2363858,31.4851375 75.24154,30.0131991 C76.5665162,28.1175209 80.0388673,22.9880386 81.1353993,21.226173 C82.0948648,19.7096304 81.7978873,19.2635885 81.2724658,18.8398486 C81.0011351,18.6324816 80.7190112,18.4389388 80.4272224,18.2599941 C80.130245,18.0815774 80.0160229,18.1261815 79.8332676,18.3715046 C78.0285588,20.8470374 75.6070507,24.2815603 72.2489216,29.3218341 C71.2894561,30.7714704 70.9467899,31.7527627 70.9467899,32.4218256 C70.9467899,32.8232633 71.1295452,33.1800969 71.449367,33.5815346 C71.8148777,34.0501463 72.2260772,34.3623756 73.0484761,34.3623756 Z M80.2444671,34.0947505 C82.0034871,34.0947505 83.6711294,32.8681351 84.7676614,31.0170611 C85.2930829,30.1472793 85.7042824,29.0767787 85.7042824,28.1846948 C85.7042824,27.3818193 85.407305,26.6904543 84.7676614,26.4674334 C84.470684,25.9990893 83.6025962,25.5753495 82.8487305,25.5753495 C81.2953102,25.5753495 79.3535349,27.0472879 78.2113141,28.5415284 C77.5031372,29.4559143 77.2061598,30.3256961 77.2061598,31.1062695 C77.2065743,31.8426919 77.4921893,32.5517284 78.0057143,33.0911561 C78.6225136,33.7156148 79.2621572,34.0947505 80.2444671,34.0947505 Z M80.8841107,30.3479982 C81.9806427,28.6530388 83.3969964,27.4041214 84.4478396,27.06959 C84.6534393,27.1364963 84.7676614,27.3818193 84.7676614,27.6940487 C84.7676614,29.4336122 82.4832198,31.9314471 80.1987783,32.5113016 C80.0845562,31.8645408 80.3815336,31.1062695 80.8841107,30.3479982 Z M89.2680113,33.0019477 C90.0447214,31.909145 90.8214315,30.8609464 91.506764,29.9688626 C91.3011643,30.8609464 91.1184089,31.7976345 91.0727201,32.5113016 C91.0270313,32.9350414 91.0727201,33.2695729 91.3240087,33.3810834 C91.5524528,33.4702917 92.4890739,33.7156148 92.6946736,33.7156148 C93.1972508,33.7156148 93.6541391,33.4702917 94.2937827,32.6228121 C96.3040913,29.9688626 97.4463121,28.6753409 98.8626659,27.2480068 C99.7535981,26.3559229 99.8449757,26.1998082 99.9363534,25.9098809 C100.004887,25.68686 100.119109,25.4192348 100.119109,25.3523285 C100.119109,25.2854222 100.050575,25.2631201 99.9363534,25.3523285 C98.4514664,26.4228292 95.847203,28.6307367 93.8597388,30.8386443 C94.1522929,29.9301106 94.5111062,29.0431931 94.9334264,28.1846948 C95.2075593,27.6048403 95.1847149,27.2926109 95.0019596,27.2034026 C94.8648931,27.1364963 93.9968053,26.9803816 93.6998279,26.9357774 C93.4485393,26.8911732 93.3114728,26.8911732 93.1287175,27.1141942 C92.1995436,28.2295534 91.1837717,29.2734038 90.0904102,30.2364877 C90.570143,29.0321745 90.9128092,28.0508822 90.9813424,27.760955 C91.1412534,27.0918921 91.1640978,26.4897355 90.9128092,26.1329019 C90.6386762,25.6645579 89.6335219,25.5976516 89.199478,25.4192348 C88.8568118,25.2854222 88.7882785,25.5753495 88.7425897,25.7760684 C88.4684567,26.9580795 86.9378809,29.6789353 86.4124593,31.1062695 C85.8870378,32.5336037 85.9784154,32.7789267 86.6180591,33.4256876 C87.052103,33.8940316 87.3262359,34.0947505 87.6689022,34.0947505 C88.1257905,34.0947505 88.7197453,33.7825211 89.2680113,33.0019477 Z M121.7249,13.7345419 C121.7249,13.4520189 121.377665,13.197775 120.625353,13.197775 C113.362291,13.197775 103.437214,22.0680325 103.437214,29.3846368 C103.437214,32.0682927 105.40485,34.102244 108.414282,34.102244 C116.632149,34.102244 123.923995,23.621775 123.923995,17.8306342 C123.923995,15.9944579 123.171683,14.6102114 121.493349,14.2147506 C121.638091,14.0452547 121.7249,13.9040378 121.7249,13.7345419 Z M117.066193,16.6441626 C117.066193,16.9831545 117.297652,17.1809295 117.876347,17.1809295 C118.252549,17.1809295 118.3972,17.1526504 118.541942,17.1526504 C120.306993,17.1526504 121.059397,18.2826531 121.059397,19.8645854 C121.059397,24.1019838 115.879745,31.8140488 110.410792,31.8140488 C108.095922,31.8140488 107.112058,30.4298023 107.112058,28.4524092 C107.112058,23.9324878 112.291619,16.2487018 118.107715,15.0057614 C117.500237,15.542439 117.066193,16.1922329 117.066193,16.6441626 Z M125.448266,33.3141771 C125.973687,33.6933127 126.293509,33.7825211 126.818931,33.7825211 C127.952014,33.7825211 129.278452,32.7022075 130.313395,31.5729186 C130.417109,30.6914505 131.387814,29.3221017 131.387814,29.3221017 C129.925771,31.2400821 128.78355,32.1321659 127.801241,32.3551869 C127.618485,31.9760513 128.00684,31.1731758 128.897773,29.7235395 C129.720172,28.4300179 130.039993,27.8501634 130.039993,27.3595172 C130.039993,26.9357774 129.76586,26.7127564 129.263283,26.6012459 C128.836247,26.4965266 128.400463,26.4293521 127.961152,26.4005271 C127.618485,26.4005271 127.504263,26.5789438 127.115908,27.2257047 C125.608177,29.6789353 123.894846,31.6415198 122.432803,32.1321659 C123.369424,30.1026751 125.653866,28.2962053 125.653866,26.8019648 C125.653866,25.8206726 124.191823,25.5753495 123.34658,25.5753495 C123.118135,25.5753495 122.912536,25.6199537 122.866847,25.7983705 C122.752625,26.2667145 122.432803,26.7350585 120.422494,29.3221017 C119.006141,31.1508737 118.754852,32.2436764 119.531562,33.0911561 C120.011295,33.6264064 120.559561,34.0947505 121.244893,34.0947505 C122.204359,34.0947505 123.71209,32.8904372 125.151288,31.21778 C124.671556,32.377489 124.9,32.8904372 125.448266,33.3141771 Z M132.826921,34.0947505 C134.882918,34.0947505 137.829848,30.9724569 138.629402,29.6789353 L138.697936,29.5674248 C138.789313,29.4113101 138.812158,29.2997997 138.652247,29.143685 L138.583713,29.0767787 C138.51518,29.0098724 138.469491,29.0321745 138.30958,29.2328934 L138.241047,29.3221017 C136.573405,31.5077072 135.134207,32.377489 133.352342,32.4889995 C133.512253,31.686124 134.494563,30.1249772 137.030293,26.3336208 L138.218203,26.0659956 C139.063446,25.8652768 139.086291,25.7314642 139.360424,25.68686 C139.62569,25.6504007 139.82703,25.435121 139.840156,25.1739118 C139.840156,25.0847034 139.817312,25.0177971 139.588868,25.0177971 C139.131979,25.0177971 138.538025,25.0400992 137.875537,25.0624013 C139.29189,22.9214 139.49749,22.4084518 138.538025,21.6278784 C138.126825,21.2710448 138.012603,20.9142113 137.692781,20.9142113 C137.510026,20.9142113 137.235893,21.092628 136.55056,21.9847119 C135.682473,23.0998168 134.905763,24.1703174 134.060519,25.3746306 C133.44372,25.4415369 132.826921,25.5307453 132.278655,25.5976516 C131.913144,25.6422558 131.844611,25.7091621 131.844611,25.7983705 C131.844611,25.9767872 132.095899,26.4228292 132.392877,26.6904543 C132.546582,26.8479956 132.764605,26.9298603 132.986832,26.9134753 C132.507099,27.6494445 131.981677,28.4300179 131.387722,29.3221017 C129.92568,31.5077072 130.039902,32.4443953 131.022212,33.3364792 C131.661855,33.9386358 132.324344,34.0947505 132.826921,34.0947505 Z M150.974524,34.6270569 C150.940682,34.7755976 150.921103,34.926896 150.916043,35.0789866 C150.916043,36.0394933 151.552945,37 152.103039,37 C152.334224,37 152.537083,36.8305041 152.681459,36.4067642 C154.475203,31.1523902 155.487667,30.2713682 156.857418,27.9439214 C156.889535,27.8924201 156.909222,27.8344571 156.914986,27.7744254 C156.914986,27.2659376 155.873281,26.5313958 155.034434,26.5313958 C154.687199,26.5313958 154.426773,26.6444228 154.166346,26.9551356 C153.327499,27.9721112 151.272416,30.4015232 149.565481,30.4015232 C148.350158,30.4015232 147.80043,29.5540436 147.80043,28.2263551 C147.80043,23.9324878 153.471876,14.8079864 159.751349,14.8079864 C160.734573,14.8079864 161.140289,15.3447532 161.140289,16.1639539 C161.140289,18.0566882 158.940829,21.4183279 156.944227,22.8307643 C156.828178,22.9155122 156.79985,22.9719811 156.79985,23.0567291 C156.79985,23.395721 157.58113,23.8194608 158.15955,23.8194608 C158.313026,23.8295385 158.465614,23.7898354 158.593594,23.706523 C161.689469,21.4747968 163.802121,18.169626 163.802121,15.824962 C163.802121,14.1864715 162.760415,13 160.272202,13 C154.310723,13 144.386012,21.6160136 144.386012,29.1585828 C144.386012,31.0513171 145.282975,32.7179974 147.655779,32.7179974 C149.594722,32.7179974 151.15728,31.7293009 152.285794,30.6558563 C151.619468,31.9359075 151.582003,31.8868429 150.974342,34.6270569 L150.974524,34.6270569 Z M159.985276,34.0947505 C161.744296,34.0947505 163.411938,32.8681351 164.50847,31.0170611 C165.033892,30.1472793 165.445091,29.0767787 165.445091,28.1846948 C165.445091,27.3818193 165.148114,26.6904543 164.50847,26.4674334 C164.211493,25.9990893 163.343405,25.5753495 162.589539,25.5753495 C161.036119,25.5753495 159.094344,27.0472879 157.952123,28.5415284 C157.243946,29.4559143 156.946969,30.3256961 156.946969,31.1062695 C156.947383,31.8426919 157.232998,32.5517284 157.746523,33.0911561 C158.36314,33.7156148 159.002783,34.0947505 159.985093,34.0947505 L159.985276,34.0947505 Z M160.624919,30.3479982 C161.721451,28.6530388 163.137805,27.4041214 164.188648,27.06959 C164.394248,27.1364963 164.50847,27.3818193 164.50847,27.6940487 C164.50847,29.4336122 162.224029,31.9314471 159.939587,32.5113016 C159.825182,31.8645408 160.12216,31.1062695 160.624737,30.3479982 L160.624919,30.3479982 Z M189.586887,13.7345419 C189.586887,13.4520189 189.239652,13.197775 188.487614,13.197775 C181.224003,13.197775 171.299475,22.0680325 171.299475,29.3846368 C171.299475,32.0682927 173.266836,34.102244 176.275903,34.102244 C184.49441,34.102244 191.786347,23.621775 191.786347,17.8306342 C191.786347,15.9944579 191.033395,14.6102114 189.355701,14.2147506 C189.500078,14.0452547 189.586887,13.9040378 189.586887,13.7345419 Z M184.928454,16.6442518 C184.928454,16.9832437 185.159639,17.1810187 185.73806,17.1810187 C186.114536,17.1810187 186.258912,17.1527396 186.404203,17.1527396 C188.168706,17.1527396 188.921658,18.2827423 188.921658,19.8646746 C188.921658,24.102073 183.741458,31.814138 178.272505,31.814138 C175.957909,31.814138 174.973771,30.4298915 174.973771,28.4524984 C174.973771,23.932577 180.153971,16.248791 185.970159,15.0058506 C185.362498,15.542439 184.928454,16.1922329 184.928454,16.6441626 L184.928454,16.6442518 Z M193.310527,33.3142663 C193.835948,33.6934019 194.15577,33.7826103 194.681192,33.7826103 C195.811533,33.7826103 197.133768,32.7073816 198.168163,31.5810365 C198.333557,30.4489821 199.670412,28.7913118 199.318608,29.2329826 L199.250075,29.322191 C197.788032,31.2401713 196.645811,32.1322552 195.663501,32.3552761 C195.480746,31.9761405 195.869101,31.173265 196.760033,29.7236287 C197.582432,28.4301071 197.902254,27.8502526 197.902254,27.3596064 C197.902254,26.9358666 197.628121,26.7128456 197.125544,26.6013352 C196.698508,26.4966158 196.262723,26.4294413 195.823412,26.4006163 C195.480746,26.4006163 195.366524,26.5790331 194.978169,27.2257939 C193.470438,29.6790245 191.757106,31.641609 190.295064,32.1322552 C191.231685,30.1027643 193.516126,28.2962945 193.516126,26.802054 C193.516126,25.8207618 192.054084,25.5754387 191.20884,25.5754387 C190.980396,25.5754387 190.774797,25.6200429 190.729108,25.7984597 C190.614886,26.2668037 190.295064,26.7351477 188.284755,29.322191 C186.868401,31.1509629 186.617113,32.2437656 187.393823,33.0912453 C187.873556,33.6264956 188.421822,34.0948397 189.107154,34.0948397 C190.06662,34.0948397 191.574351,32.8905264 193.013549,31.2178692 C192.533817,32.377489 192.762261,32.8904372 193.310527,33.3141771 L193.310527,33.3142663 Z M200.689273,34.0948397 C202.74527,34.0948397 205.6922,30.9725461 206.491754,29.6790245 L206.560288,29.567514 C206.651665,29.4113993 206.67451,29.2998889 206.514599,29.1437742 L206.446066,29.0768679 C206.377532,29.0099616 206.331844,29.0322637 206.171933,29.2329826 L206.103399,29.322191 C204.435757,31.5077964 202.996559,32.3775782 201.214694,32.4890887 C201.374605,31.6862132 202.356915,30.1250664 204.892645,26.33371 L206.080555,26.0660848 C206.925798,25.865366 206.948643,25.7315534 207.222776,25.6869492 C207.488043,25.65049 207.689382,25.4352102 207.702509,25.174001 C207.702509,25.0847926 207.679664,25.0178863 207.45122,25.0178863 C206.994332,25.0178863 206.400377,25.0401884 205.737889,25.0624905 C207.154243,22.9214892 207.359842,22.408541 206.400377,21.6279676 C205.989177,21.271134 205.874955,20.9143005 205.555133,20.9143005 C205.372378,20.9143005 205.098245,21.0927173 204.412913,21.9848011 C203.544825,23.099906 202.768115,24.1704066 201.922871,25.3747198 C201.306072,25.4416261 200.689273,25.5308345 200.141007,25.5977408 C199.775496,25.642345 199.706963,25.7092513 199.706963,25.7984597 C199.706963,25.9768764 199.958252,26.4229184 200.255229,26.6905435 C200.408934,26.8480848 200.626958,26.9299495 200.849184,26.9135645 C200.369451,27.6495337 199.84403,28.4301071 199.250075,29.322191 C197.788032,31.5077964 197.902254,32.4444845 198.884564,33.3365684 C199.524208,33.9386358 200.186696,34.0947505 200.689273,34.0947505 L200.689273,34.0948397 Z M207.83592,15.7499377 L207.83592,16.0116751 L208.472822,16.0116751 L208.472822,17.7990544 L208.758834,17.7990544 L208.758834,16.0115859 L209.395737,16.0115859 L209.395737,15.7498485 L207.83592,15.7498485 L207.83592,15.7499377 Z M210.745385,17.2548832 L210.005226,15.7499377 L209.745713,15.7499377 L209.489856,17.7992328 L209.770385,17.7992328 L209.962278,16.258604 L210.622939,17.573268 L210.873313,17.573268 L211.528491,16.2586932 L211.720384,17.799322 L212,17.799322 L211.744143,15.7500269 L211.485544,15.7500269 L210.745385,17.2548832 Z" id="Blow_Out_Go_Out-Logo"></path>
                <g id="BOGO-Service-Mark" fill-rule="nonzero">
                    <path d="M12.0862767,21.9039039 C11.4520476,21.9039039 10.7755366,21.063063 10.7755366,20.3483484 C10.7656823,20.0775549 10.8761376,19.816163 11.0775504,19.6336336 C18.0963525,13.1171171 25.495692,9.33333333 32.8225483,9.33333333 C36.9661783,9.33333333 40.3064516,10.9309309 40.3064516,14.4204204 C40.3064516,18.2042042 34.3446981,23.6276276 25.0426713,27.5375375 C25.9452013,27.3345394 26.8658982,27.2218659 27.7909973,27.2012012 C29.9896582,27.2012012 31.3849622,28.042042 31.3849622,29.7657657 C31.3849622,34.2222222 21.9138077,40.4444444 11.7540615,40.4444444 C10.654731,40.4444444 10.2741935,40.1441441 10.2741935,39.6456456 C10.3328402,39.2066178 10.4175519,38.7714231 10.5278852,38.3423423 C11.7540615,33.2552552 15.7285638,24.2582583 18.8151455,19.1711712 C19.2802468,18.3723724 20.7178328,17.993994 21.9440091,17.993994 C23.0856215,17.993994 24.100388,18.3303303 24.100388,18.918919 C24.0940775,19.0741782 24.0343768,19.2225827 23.9312602,19.3393393 C22.0766596,22.0906104 20.4234017,24.970909 18.9842733,27.9579579 C29.2527445,23.9219219 34.8400008,18.5405406 34.8400008,14.6726726 C34.8400008,13.0750751 33.3601329,12.066066 31.5420095,12.066066 C25.2842824,12.066066 19.9567579,15.6696697 12.5997003,21.7357357 C12.4528818,21.8484217 12.2717061,21.9077645 12.0862767,21.9039039 Z M17.9211844,30.1441441 C16.7303024,32.6168138 15.7268382,35.1744799 14.9191667,37.7957958 C22.0225326,36.954955 26.0393169,32.8348349 26.0393169,30.6906907 C26.0393169,29.8918919 25.4896518,29.3453453 24.3057574,29.3453453 C23.206427,29.3453453 21.5574314,29.8078078 19.3587704,30.984985 C19.2518842,31.032618 19.1373697,31.061084 19.0205149,31.0690691 C18.5554136,31.0690691 18.1899768,30.6486486 17.9211844,30.1441441 Z" id="Shape"></path>
                    <path d="M48.9992769,24.6035748 C48.9971593,27.7266035 48.4156266,30.8233596 47.282917,33.7434685 C46.1397628,36.6975711 44.4244062,39.4083331 42.2308752,41.7271642 C41.1211473,42.8926317 39.8892857,43.940936 38.5555604,44.8548281 C38.2159273,45.0771739 37.8823591,45.3054489 37.5366611,45.5189009 C37.1909632,45.7323527 36.8422329,45.9398755 36.4844051,46.1325752 C36.1265775,46.3252748 35.7657173,46.5120453 35.39576,46.6839927 C35.0258025,46.8559401 34.6588775,47.0278875 34.2798227,47.1790827 C31.2564087,48.4342444 27.9966812,49.0534261 24.7124808,48.9963888 C23.0794026,48.9662067 21.4537144,48.7735008 19.86058,48.4212544 C18.2780507,48.0657786 16.7344213,47.5614207 15.2512742,46.9152323 C13.7774454,46.2703922 12.3717693,45.4859664 11.05438,44.5731902 C9.73788977,43.6721833 8.50956331,42.6539402 7.38512998,41.5314999 C2.82435177,37.0044827 0.188924498,30.9552643 0.0102407321,24.6035748 C-0.181955624,18.1424041 2.33811843,11.8856604 6.98484817,7.28728568 C9.29476219,4.98873541 12.0435262,3.1555824 15.0753928,1.89169484 C21.2222964,-0.653025338 28.1662995,-0.629460954 34.294985,1.95691626 C34.6710073,2.11404062 35.0379322,2.29488185 35.4109221,2.46386463 C35.783912,2.63284742 36.1356748,2.83740554 36.496535,3.02417599 C36.857395,3.21094645 37.2000605,3.43625683 37.548791,3.64377956 C37.8975213,3.85130228 38.2280571,4.09143572 38.5646577,4.31378149 C39.9048358,5.23548882 41.1427388,6.29169393 42.2581672,7.4651623 C44.452977,9.79091057 46.1683223,12.5087014 47.3102089,15.4696103 C47.8761974,16.929215 48.3035525,18.4366557 48.5868653,19.9728534 C48.8732221,21.5002822 49.0113062,23.0507472 48.9992769,24.6035748 Z M48.8173306,24.6035748 C48.8052664,23.0611659 48.6356181,21.5237932 48.3109134,20.0143579 C47.9782183,18.5115018 47.48528,17.0468852 46.840181,15.6445223 C45.5468553,12.8626243 43.6959451,10.3625771 41.3969548,8.29228859 C36.8592261,4.18397458 30.903234,1.90038918 24.7185457,1.89762405 C18.5528222,1.90746573 12.6335094,4.264979 8.21601801,8.47016521 C3.78024106,12.7406401 1.20140241,18.5199726 1.01701015,24.6035748 C0.935915437,27.6590494 1.48990082,30.698835 2.64542937,33.5389104 C4.3986449,37.8349364 7.49014665,41.482711 11.4819538,43.965445 C12.7986395,44.7763205 14.1943239,45.4575607 15.6485236,45.9991677 C18.5425761,47.067501 21.6197635,47.5818107 24.7124808,47.5140836 C27.7834229,47.4602896 30.8183597,46.857434 33.6672703,45.7353174 C34.0220655,45.5989453 34.3677634,45.4388564 34.7225587,45.2906259 C35.0773539,45.1423954 35.4078897,44.9585895 35.7535876,44.795536 C36.0992855,44.6324823 36.4267888,44.4397827 36.7664219,44.261906 C37.1060549,44.0840294 37.424461,43.8765067 37.7519643,43.6838071 C39.0549332,42.8750803 40.280023,41.9522555 41.4121169,40.9267194 C43.7106116,38.8543621 45.5605058,36.3522778 46.8523108,33.5685565 C48.1504404,30.7503513 48.8202812,27.694347 48.8173306,24.6035748 Z" id="Shape"></path>
                </g>
            </g>
        </g>
    </g>
</svg>