<?xml version="1.0" encoding="UTF-8"?>
<svg width="90px" height="71px" viewBox="0 0 90 71" version="1.1" xmlns="http://www.w3.org/2000/svg" xmlns:xlink="http://www.w3.org/1999/xlink">
    <!-- Generator: Sketch 53.1 (72631) - https://sketchapp.com -->
    <title>car</title>
    <desc>Created with Sketch.</desc>
    <g id="Stylist-Page" stroke="none" stroke-width="1" fill="none" fill-rule="evenodd">
        <g transform="translate(-1045.000000, -764.000000)" fill="#F42175" fill-rule="nonzero" id="Icons">
            <g transform="translate(276.000000, 755.000000)">
                <g id="car" transform="translate(769.000000, 9.000000)">
                    <path d="M73.6454273,71 L80.9698273,71 C83.740481,71 85.9865396,68.7614237 85.9865396,66 L85.9865396,56.3 C88.4295604,55.1450543 89.9904164,52.6948955 89.9999094,50 L89.9999094,31 C90.0160579,27.8140959 87.8716425,25.0192023 84.7825286,24.2 L78.7624738,3.6 C78.1381719,1.46666667 76.1760799,5.32907052e-15 73.94643,0 L16.05357,0 C13.8239201,-1.77635684e-15 11.8618281,1.46666667 11.2375262,3.6 L5.21747139,24.2 C2.12835747,25.0192023 -0.0160578846,27.8140959 9.05861475e-05,31 L9.05861475e-05,50 C0.00958357865,52.6948955 1.57043964,55.1450543 4.01346043,56.3 L4.01346043,66 C4.01346043,68.7614237 6.25951904,71 9.03017274,71 L16.3545727,71 C19.1252264,71 21.371285,68.7614237 21.371285,66 L21.371285,57 L68.628715,57 L68.628715,66 C68.628715,68.7614237 70.8747736,71 73.6454273,71 Z M83.9798546,66 C83.9798546,67.6568542 82.6322195,69 80.9698273,69 L73.6454273,69 C71.9830351,69 70.6353999,67.6568542 70.6353999,66 L70.6353999,57 L83.8795204,57 L83.9798546,66 Z M13.1438768,4.2 C13.5055995,2.89699259 14.6970947,1.99611081 16.05357,2 L73.8460958,2 C75.202571,1.99611081 76.3940663,2.89699259 76.7557889,4.2 L82.5751752,24 L7.32449056,24 L13.1438768,4.2 Z M19.2642659,66 C19.2642659,67.6568542 17.9166307,69 16.2542385,69 L9.03017274,69 C7.36778052,69 6.02014536,67.6568542 6.02014536,66 L6.02014536,56.9 L19.2642659,56.9 L19.2642659,66 Z M6.92315357,55 C4.15249987,55 1.90644126,52.7614237 1.90644126,50 L1.90644126,31 C1.90644126,28.2385763 4.15249987,26 6.92315357,26 L82.8761779,26 C85.6468316,26 87.8928902,28.2385763 87.8928902,31 L87.8928902,50 C87.8928902,52.7614237 85.6468316,55 82.8761779,55 L6.92315357,55 Z" id="Shape"></path>
                    <path d="M52.3507462,33 L38.6492536,33 C34.9769722,33.0000001 32,35.9101492 32,39.5 C32,43.0898508 34.9769722,45.9999999 38.6492536,46 L52.3507462,46 C56.0230277,46 59,43.0898509 59,39.5 C59,35.9101491 56.0230277,33 52.3507462,33 L52.3507462,33 Z M52.3507462,44.030303 L38.6492536,44.030303 C36.0897847,44.030303 34.0149252,42.0020173 34.0149252,39.5 C34.0149252,36.9979827 36.0897847,34.969697 38.6492536,34.969697 L52.3507462,34.969697 C54.9102151,34.969697 56.9850746,36.9979827 56.9850746,39.5 C56.9850746,42.0020173 54.9102151,44.030303 52.3507462,44.030303 Z" id="Shape"></path>
                    <path d="M73,32 C68.581722,32 65,35.581722 65,40 C65,44.418278 68.581722,48 73,48 C77.418278,48 81,44.418278 81,40 C81,35.581722 77.418278,32 73,32 Z M73,46.1234568 C69.6856102,46.1230114 66.9940205,43.4454908 66.9762053,40.1311489 C66.9583901,36.816807 69.6210407,34.1105063 72.9352342,34.074431 C76.2494276,34.0383557 78.9703571,36.6860556 79.0246914,40 C79.0246914,43.3273452 76.3273452,46.0246914 73,46.0246914 L73,46.1234568 Z" id="Shape"></path>
                    <path d="M17,32 C12.581722,32 9,35.581722 9,40 C9,44.418278 12.581722,48 17,48 C21.418278,48 25,44.418278 25,40 C25,37.8782681 24.1571453,35.8434368 22.6568542,34.3431458 C21.1565632,32.8428547 19.1217319,32 17,32 Z M17,46.1234568 C13.6856102,46.1230114 10.9940205,43.4454908 10.9762053,40.1311489 C10.9583901,36.816807 13.6210407,34.1105063 16.9352342,34.074431 C20.2494276,34.0383557 22.9703571,36.6860556 23.0246914,40 C23.0246914,41.5978475 22.3899489,43.1302513 21.2601001,44.2601001 C20.1302513,45.3899489 18.5978475,46.0246914 17,46.0246914 L17,46.1234568 Z" id="Shape"></path>
                </g>
            </g>
        </g>
    </g>
</svg>