<?xml version="1.0" encoding="UTF-8"?>
<svg width="18px" height="18px" viewBox="0 0 18 18" version="1.1" xmlns="http://www.w3.org/2000/svg" xmlns:xlink="http://www.w3.org/1999/xlink">
    <!-- Generator: Sketch 52.6 (67491) - http://www.bohemiancoding.com/sketch -->
    <title>pinterest-brands</title>
    <desc>Created with Sketch.</desc>
    <g id="Symbols" stroke="none" stroke-width="1" fill="none" fill-rule="evenodd">
        <g id="Footer" transform="translate(-784.000000, -246.000000)" fill="#FFFFFF">
            <g id="pinterest-brands" transform="translate(784.000000, 246.000000)">
                <path d="M18,9 C18,13.9717742 13.9717742,18 9,18 C8.07096774,18 7.17822581,17.8584677 6.33629032,17.5971774 C6.70282258,16.9983871 7.25080645,16.0185484 7.45403226,15.2383065 C7.56290323,14.8173387 8.01290323,13.0971774 8.01290323,13.0971774 C8.30685484,13.6560484 9.16330645,14.1314516 10.0741935,14.1314516 C12.7887097,14.1314516 14.7447581,11.6346774 14.7447581,8.53185484 C14.7447581,5.55967742 12.3169355,3.33508065 9.19596774,3.33508065 C5.31290323,3.33508065 3.24798387,5.94072581 3.24798387,8.78225806 C3.24798387,10.1032258 3.95201613,11.7471774 5.0733871,12.2697581 C5.24395161,12.3495968 5.33467742,12.3133065 5.37459677,12.15 C5.40362903,12.0266129 5.55604839,11.4133065 5.625,11.1302419 C5.64677419,11.0395161 5.6358871,10.9596774 5.56330645,10.8725806 C5.19677419,10.4189516 4.89919355,9.59153226 4.89919355,8.81854839 C4.89919355,6.83346774 6.4016129,4.91370968 8.96370968,4.91370968 C11.1737903,4.91370968 12.7233871,6.41975806 12.7233871,8.57540323 C12.7233871,11.0104839 11.4931452,12.6979839 9.89274194,12.6979839 C9.0108871,12.6979839 8.34677419,11.9685484 8.5608871,11.0721774 C8.81491935,10.0016129 9.30483871,8.84758065 9.30483871,8.07459677 C9.30483871,7.38508065 8.93467742,6.80806452 8.16532258,6.80806452 C7.26169355,6.80806452 6.5358871,7.74072581 6.5358871,8.99274194 C6.5358871,9.79112903 6.80443548,10.3282258 6.80443548,10.3282258 C6.80443548,10.3282258 5.91532258,14.0951613 5.75201613,14.7991935 C5.57056452,15.5758065 5.64314516,16.6717742 5.71935484,17.3830645 C2.3733871,16.0729839 0,12.8141129 0,9 C0,4.02822581 4.02822581,0 9,0 C13.9717742,0 18,4.02822581 18,9 Z" id="Path"></path>
            </g>
        </g>
    </g>
</svg>