<?xml version="1.0" encoding="UTF-8"?>
<svg width="19px" height="16px" viewBox="0 0 19 16" version="1.1" xmlns="http://www.w3.org/2000/svg" xmlns:xlink="http://www.w3.org/1999/xlink">
    <!-- Generator: Sketch 52.6 (67491) - http://www.bohemiancoding.com/sketch -->
    <title>icon-twitter</title>
    <desc>Created with Sketch.</desc>
    <g id="Symbols" stroke="none" stroke-width="1" fill="none" fill-rule="evenodd">
        <g id="Footer" transform="translate(-735.000000, -246.000000)" fill="#FFFFFF">
            <g id="icon-twitter" transform="translate(734.000000, 246.000000)">
                <path d="M17.762,2.53 C18.567,2.031 19.185,1.239 19.476,0.296 C18.722,0.758 17.889,1.095 16.999,1.275 C16.29,0.49 15.276,0 14.154,0 C12.003,0 10.257,1.809 10.257,4.039 C10.257,4.356 10.29,4.663 10.357,4.959 C7.117,4.79 4.246,3.184 2.322,0.737 C1.986,1.336 1.795,2.03 1.795,2.77 C1.795,4.171 2.483,5.407 3.529,6.132 C2.891,6.112 2.289,5.929 1.762,5.628 L1.762,5.678 C1.762,7.636 3.106,9.269 4.89,9.638 C4.563,9.733 4.219,9.78 3.863,9.78 C3.612,9.78 3.367,9.756 3.129,9.708 C3.625,11.312 5.064,12.48 6.77,12.512 C5.436,13.596 3.754,14.242 1.929,14.242 C1.615,14.242 1.303,14.224 0.999,14.187 C2.724,15.331 4.774,16 6.974,16 C14.145,16 18.065,9.846 18.065,4.508 L18.055,3.984 C18.817,3.414 19.478,2.704 19.999,1.893 C19.301,2.214 18.549,2.432 17.761,2.529 L17.762,2.53 Z" id="Path"></path>
            </g>
        </g>
    </g>
</svg>