<?xml version="1.0" encoding="UTF-8"?>
<svg width="20px" height="19px" viewBox="0 0 20 19" version="1.1" xmlns="http://www.w3.org/2000/svg" xmlns:xlink="http://www.w3.org/1999/xlink">
    <!-- Generator: Sketch 52.6 (67491) - http://www.bohemiancoding.com/sketch -->
    <title>icon-instagram</title>
    <desc>Created with Sketch.</desc>
    <g id="Symbols" stroke="none" stroke-width="1" fill="none" fill-rule="evenodd">
        <g id="Footer" transform="translate(-684.000000, -246.000000)" fill="#FFFFFF" fill-rule="nonzero">
            <g id="icon-instagram" transform="translate(684.000000, 246.000000)">
                <path d="M9.518,1.97215226e-31 C12.103,1.97215226e-31 12.427,0.01 13.442,0.055 C14.455,0.099 15.147,0.253 15.752,0.478 C16.378,0.711 16.909,1.022 17.438,1.528 C17.967,2.034 18.293,2.542 18.536,3.141 C18.771,3.72 18.932,4.382 18.978,5.351 C19.024,6.322 19.035,6.632 19.035,9.105 C19.035,11.578 19.024,11.888 18.978,12.859 C18.932,13.828 18.771,14.49 18.536,15.069 C18.293,15.668 17.967,16.175 17.438,16.682 C16.909,17.188 16.378,17.499 15.752,17.732 C15.147,17.957 14.455,18.111 13.442,18.155 C12.427,18.199 12.103,18.21 9.518,18.21 C6.933,18.21 6.609,18.2 5.594,18.155 C4.581,18.111 3.889,17.957 3.284,17.732 C2.658,17.499 2.127,17.188 1.598,16.682 C1.069,16.176 0.743,15.668 0.5,15.069 C0.265,14.49 0.104,13.828 0.058,12.859 C0.012,11.888 0.001,11.578 0.001,9.105 C0.001,6.632 0.012,6.322 0.058,5.351 C0.104,4.382 0.265,3.72 0.5,3.141 C0.743,2.542 1.069,2.035 1.598,1.528 C2.127,1.022 2.658,0.711 3.284,0.478 C3.889,0.253 4.581,0.099 5.594,0.055 C6.609,0.011 6.933,-8.95117314e-16 9.518,1.97215226e-31 Z M9.518,1.64 C6.976,1.64 6.675,1.649 5.672,1.693 C4.744,1.733 4.24,1.882 3.905,2.006 C3.461,2.171 3.144,2.368 2.811,2.687 C2.478,3.006 2.272,3.309 2.099,3.734 C1.969,4.055 1.814,4.537 1.771,5.425 C1.725,6.385 1.715,6.673 1.715,9.104 C1.715,11.535 1.725,11.823 1.771,12.783 C1.813,13.671 1.968,14.153 2.099,14.474 C2.272,14.899 2.478,15.202 2.811,15.521 C3.144,15.84 3.461,16.037 3.905,16.202 C4.24,16.327 4.744,16.475 5.672,16.515 C6.676,16.559 6.977,16.568 9.518,16.568 C12.06,16.568 12.361,16.559 13.364,16.515 C14.292,16.475 14.796,16.326 15.131,16.202 C15.575,16.037 15.892,15.84 16.225,15.521 C16.558,15.202 16.764,14.899 16.937,14.474 C17.067,14.153 17.222,13.671 17.265,12.783 C17.311,11.823 17.321,11.535 17.321,9.104 C17.321,6.673 17.311,6.385 17.265,5.425 C17.223,4.537 17.068,4.055 16.937,3.734 C16.764,3.309 16.558,3.006 16.225,2.687 C15.892,2.368 15.575,2.171 15.131,2.006 C14.796,1.881 14.292,1.733 13.364,1.693 C12.36,1.649 12.059,1.64 9.518,1.64 Z M9.518,4.429 C12.217,4.429 14.406,6.522 14.406,9.104 C14.406,11.686 12.218,13.779 9.518,13.779 C6.819,13.779 4.63,11.686 4.63,9.104 C4.63,6.522 6.818,4.429 9.518,4.429 Z M9.518,12.139 C11.27,12.139 12.691,10.78 12.691,9.104 C12.691,7.428 11.271,6.069 9.518,6.069 C7.766,6.069 6.345,7.428 6.345,9.104 C6.345,10.78 7.765,12.139 9.518,12.139 Z M15.741,4.244 C15.741,4.847 15.23,5.337 14.599,5.337 C13.968,5.337 13.457,4.848 13.457,4.244 C13.457,3.641 13.968,3.151 14.599,3.151 C15.23,3.151 15.741,3.64 15.741,4.244 Z" id="Shape"></path>
            </g>
        </g>
    </g>
</svg>