<?xml version="1.0" encoding="UTF-8"?>
<svg width="64px" height="94px" viewBox="0 0 64 94" version="1.1" xmlns="http://www.w3.org/2000/svg" xmlns:xlink="http://www.w3.org/1999/xlink">
    <!-- Generator: Sketch 53.1 (72631) - https://sketchapp.com -->
    <title>license</title>
    <desc>Created with Sketch.</desc>
    <g id="Stylist-Page" stroke="none" stroke-width="1" fill="none" fill-rule="evenodd">
        <g transform="translate(-346.000000, -755.000000)" fill="#F42175" id="Icons">
            <g transform="translate(276.000000, 755.000000)">
                <g id="license" transform="translate(70.000000, 0.000000)">
                    <path d="M62.9,20.4 L42.2,1.2 C42,1 41.8,0.9 41.5,0.9 L9.7,0.9 C4.7,0.9 0.7,4.9 0.7,9.9 L0.7,71.3 C0.7,76.3 4.7,80.3 9.7,80.3 L21.7,80.3 L21.7,92.1 C21.7,92.5 21.9,92.8 22.2,93 C22.3,93.1 22.5,93.1 22.7,93.1 C22.9,93.1 23.1,93 23.3,92.9 L32,86.8 L40.7,92.9 C41,93.1 41.4,93.1 41.7,93 C42,92.8 42.2,92.5 42.2,92.1 L42.2,79.3 L54.2,79.3 C59.2,79.3 63.2,75.3 63.2,70.3 L63.2,21.1 C63.3,20.9 63.2,20.6 62.9,20.4 Z M42.4,4 L60.9,21.2 L45.4,21.2 C43.7,21.2 42.4,19.9 42.4,18.2 L42.4,4 Z M32,72.9 C24.9,72.9 19.1,67.1 19.1,60 C19.1,52.9 24.9,47.2 32,47.2 C39.1,47.2 44.9,53 44.9,60 C44.9,67 39.1,72.9 32,72.9 Z M32.6,84.8 C32.3,84.6 31.8,84.6 31.5,84.8 L23.8,90.2 L23.8,72.4 C26.2,74 29,74.9 32.1,74.9 C35.2,74.9 38,74 40.4,72.4 L40.4,90.2 L32.6,84.8 Z M54.3,77.3 L42.3,77.3 L42.3,71.1 C42.3,71 42.3,70.9 42.2,70.8 C45,68.1 46.8,64.3 46.8,60.1 C46.8,51.9 40.1,45.2 31.9,45.2 C23.7,45.2 17.1,51.9 17.1,60 C17.1,64.2 18.9,68 21.7,70.8 C21.7,70.9 21.6,71 21.6,71.1 L21.6,78.3 L9.6,78.3 C5.7,78.3 2.6,75.2 2.6,71.3 L2.6,9.9 C2.6,6 5.7,2.9 9.6,2.9 L40.2,2.9 L40.2,18.2 C40.2,21 42.4,23.2 45.2,23.2 L61.1,23.2 L61.1,70.3 C61.3,74.2 58.1,77.3 54.3,77.3 Z" id="Shape" fill-rule="nonzero"></path>
                    <path d="M14.1,22.9 L28.9,22.9 C29.5,22.9 29.9,22.5 29.9,21.9 C29.9,21.3 29.5,20.9 28.9,20.9 L14.1,20.9 C13.5,20.9 13.1,21.3 13.1,21.9 C13.1,22.5 13.6,22.9 14.1,22.9 Z" id="Shape"></path>
                    <path d="M49.9,33.9 L14.1,33.9 C13.5,33.9 13.1,34.3 13.1,34.9 C13.1,35.5 13.5,35.9 14.1,35.9 L49.9,35.9 C50.5,35.9 50.9,35.5 50.9,34.9 C50.9,34.3 50.4,33.9 49.9,33.9 Z" id="Shape"></path>
                </g>
            </g>
        </g>
    </g>
</svg>