<?xml version="1.0" encoding="UTF-8"?>
<svg width="74px" height="77px" viewBox="0 0 74 77" version="1.1" xmlns="http://www.w3.org/2000/svg" xmlns:xlink="http://www.w3.org/1999/xlink">
    <!-- Generator: Sketch 52.6 (67491) - http://www.bohemiancoding.com/sketch -->
    <title>B Mark</title>
    <desc>Created with Sketch.</desc>
    <g id="Symbols" stroke="none" stroke-width="1" fill="none" fill-rule="evenodd">
        <g id="Footer" transform="translate(-683.000000, -50.000000)" fill="#FFFFFF" fill-rule="nonzero">
            <g id="B-Mark" transform="translate(683.000000, 50.000000)">
                <path d="M18.775543,33.3945946 C17.804103,33.3945946 16.7679002,32.0972973 16.7679002,30.9945946 C16.7528066,30.576799 16.9219894,30.1735086 17.2304907,29.8918919 C27.9810941,19.8378378 39.3145615,14 50.5370072,14 C56.883749,14 62,16.4648649 62,21.8486486 C62,27.6864865 52.8684634,36.0540541 38.6206758,42.0864865 C40.0030688,41.7732895 41.4132876,41.5994502 42.8302494,41.5675676 C46.1979083,41.5675676 48.3350764,42.8648649 48.3350764,45.5243243 C48.3350764,52.4 33.8282381,62 18.2666935,62 C16.582864,62 16,61.5366795 16,60.7675676 C16.0898281,60.0902102 16.2195801,59.4187671 16.388576,58.7567568 C18.2666935,50.9081081 24.3543846,37.027027 29.0820595,29.1783784 C29.7944489,27.9459459 31.9963797,27.3621622 33.8744972,27.3621622 C35.6230893,27.3621622 37.1773934,27.8810811 37.1773934,28.7891892 C37.1677276,29.0287321 37.0762851,29.2576991 36.9183427,29.4378378 C34.0776762,33.6826562 31.5454036,38.1265453 29.3411102,42.7351351 C45.0691874,36.5081081 53.6271118,28.2054054 53.6271118,22.2378378 C53.6271118,19.772973 51.3604183,18.2162162 48.5756235,18.2162162 C38.9907482,18.2162162 30.8306516,23.7760618 19.5619469,33.1351351 C19.337067,33.3089935 19.0595626,33.4005509 18.775543,33.3945946 Z M27.7127916,46.1081081 C25.8887338,49.9230842 24.3517413,53.8691975 23.114642,57.9135135 C33.9947707,56.6162162 40.1472245,50.2594595 40.1472245,46.9513514 C40.1472245,45.7189189 39.3053097,44.8756757 37.4919549,44.8756757 C35.8081255,44.8756757 33.2823813,45.5891892 29.9147224,47.4054054 C29.7510063,47.4788964 29.5756059,47.5228154 29.3966211,47.5351351 C28.6842317,47.5351351 28.1244972,46.8864865 27.7127916,46.1081081 Z" id="Shape"></path>
                <path d="M73.998908,38.6627603 C73.99571,43.5703769 73.1174769,48.4367079 71.4068542,53.0254505 C69.680458,57.6676117 67.0899197,61.9273806 63.7772402,65.571258 C62.1013245,67.4027069 60.2409621,69.0500422 58.2267646,70.4861584 C57.7138494,70.8355589 57.2100934,71.1942768 56.6880189,71.5297013 C56.1659445,71.8651258 55.6392905,72.1912329 55.0988977,72.4940467 C54.5585048,72.7968605 54.0135324,73.0903569 53.4548212,73.3605599 C52.8961099,73.630763 52.3419783,73.9009661 51.7695283,74.1385584 C47.203556,76.1109555 42.2807023,77.0839553 37.3208894,76.9943252 C34.854608,76.9468962 32.3994871,76.6440726 29.993529,76.0905426 C27.6035867,75.5319378 25.2723914,74.7393754 23.0325366,73.7239365 C20.8067543,72.7106163 18.6838964,71.4779471 16.6943698,70.0435845 C14.7062009,68.6277167 12.8511772,67.0276203 11.1530535,65.2637855 C4.26534756,58.1499013 0.285314548,48.6439868 0.0154655955,38.6627603 C-0.274790127,28.509492 3.531036,18.6774663 10.5485462,11.4514489 C14.0369878,7.83944134 18.1881824,4.95877235 22.7669197,2.97266331 C32.0499986,-1.02618267 42.5368606,-0.989152927 51.7924263,3.07515413 C52.3602967,3.32206382 52.9144283,3.6062429 53.4777192,3.87178728 C54.04101,4.13733166 54.5722436,4.45878013 55.1172161,4.75227656 C55.6621885,5.04577298 56.1796833,5.39983216 56.7063373,5.7259393 C57.2329914,6.05204644 57.7321678,6.42939899 58.2405034,6.77879949 C60.2644459,8.22719671 62.1339321,9.8869476 63.8184566,11.7309693 C67.1330673,15.3857167 69.7235887,19.6565307 71.4480706,24.3093876 C72.3028287,26.6030521 72.9482222,28.9718876 73.3760823,31.3859125 C73.8085395,33.7861578 74.0170748,36.2226027 73.998908,38.6627603 Z M73.724132,38.6627603 C73.7059125,36.2389749 73.449709,33.8231037 72.9593387,31.4511339 C72.4569011,29.0895029 71.7124638,26.7879624 70.7382326,24.5842493 C68.7850468,20.2126953 65.9897948,16.2840498 62.5178501,13.0307392 C55.6649536,6.57481719 46.6701901,2.98632586 37.3300486,2.98198066 C28.0185479,2.99744615 19.0791773,6.70210985 12.4078639,13.3102596 C5.70893548,20.0210059 1.81436282,29.1028142 1.53589289,38.6627603 C1.41342331,43.4642205 2.25005429,48.2410264 3.99513823,52.704002 C6.64285148,59.4549001 11.31165,65.1871173 17.3400934,69.0885564 C19.3285577,70.3627893 21.4363258,71.4333096 23.6324642,72.2844064 C28.0030743,73.9632157 32.6502551,74.7714168 37.3208894,74.6649885 C41.9586387,74.580455 46.5420126,73.6331105 50.844449,71.8697844 C51.3802622,71.6554855 51.9023367,71.4039171 52.4381499,71.1709834 C52.9739631,70.9380498 53.4731396,70.649212 53.995214,70.392985 C54.5172884,70.1367579 55.0118852,69.8339442 55.5248005,69.5544238 C56.0377157,69.2749034 56.5185737,68.9487962 57.0131706,68.6459824 C58.9809195,67.3751261 60.8310551,65.9249729 62.5407481,64.3134162 C66.011944,61.0568548 68.8056619,57.1250081 70.756551,52.7505887 C72.7169918,48.3219807 73.7285879,43.519688 73.724132,38.6627603 Z" id="Shape"></path>
            </g>
        </g>
    </g>
</svg>