<?xml version="1.0" encoding="UTF-8"?>
<svg width="54px" height="88px" viewBox="0 0 54 88" version="1.1" xmlns="http://www.w3.org/2000/svg" xmlns:xlink="http://www.w3.org/1999/xlink">
    <!-- Generator: Sketch 53.1 (72631) - https://sketchapp.com -->
    <title>phone</title>
    <desc>Created with Sketch.</desc>
    <g id="Stylist-Page" stroke="none" stroke-width="1" fill="none" fill-rule="evenodd">
        <g transform="translate(-570.000000, -757.000000)" fill="#F42175" fill-rule="nonzero" id="Icons">
            <g transform="translate(276.000000, 755.000000)">
                <g id="phone" transform="translate(294.000000, 1.000000)">
                    <path d="M5,0.99995 C2.2473,0.99995 0,3.24725 0,5.99995 L0,84.00002 C0,86.75272 2.2473,89.00002 5,89.00002 L49,89.00002 C51.7527,89.00002 54,86.75272 54,84.00002 L54,5.99996 C54,3.24726 51.7527,0.99996 49,0.99996 L5,0.99995 Z M5,2.99995 L49,2.99995 C50.6793,2.99995 52,4.32068 52,5.99995 L52,8.99995 L2,8.99995 L2,5.99995 C2,4.32065 3.3208,2.99995 5,2.99995 Z M2,10.99995 L52,10.99995 L52,75.00002 L2,75.00002 L2,10.99995 Z M2,77.00002 L52,77.00002 L52,84.00002 C52,85.67932 50.6793,87.00002 49,87.00002 L5,87.00002 C3.3208,87.00002 2,85.67932 2,84.00002 L2,77.00002 Z M27,80.00002 C25.8955,80.00002 25,80.89542 25,82.00002 C25,83.10462 25.8955,84.00002 27,84.00002 C28.1046,84.00002 29,83.10462 29,82.00002 C29,80.89542 28.1046,80.00002 27,80.00002 Z" id="Shape"></path>
                </g>
            </g>
        </g>
    </g>
</svg>