<?xml version="1.0" encoding="UTF-8"?>
<svg width="103px" height="83px" viewBox="0 0 103 83" version="1.1" xmlns="http://www.w3.org/2000/svg" xmlns:xlink="http://www.w3.org/1999/xlink">
    <!-- Generator: Sketch 53.1 (72631) - https://sketchapp.com -->
    <title>trust</title>
    <desc>Created with Sketch.</desc>
    <g id="Stylist-Page" stroke="none" stroke-width="1" fill="none" fill-rule="evenodd">
        <g transform="translate(-783.000000, -759.000000)" fill="#F42175" fill-rule="nonzero" id="Icons" stroke="#F71774">
            <g transform="translate(276.000000, 755.000000)">
                <g id="trust" transform="translate(508.000000, 5.000000)">
                    <path d="M93.8072725,8.60326712 C83.3587428,-2.43566312 65.8811389,-2.91465852 54.8505249,7.5316164 L50.2367528,11.8170595 L46.4995859,8.31099874 C35.9896011,-2.13643597 18.9700118,-2.42638476 8.13999652,7.83316314 C-2.61928738,18.0289223 -2.72596419,34.8088385 7.89997369,46.0310164 L21.4861931,60.3765226 C21.7354921,61.2312917 22.1610398,62.0466277 22.8150151,62.7390254 C23.4678307,63.4302633 24.2621092,63.8999803 25.1062474,64.1957281 L26.4037621,65.5677657 L25.5781763,66.3448285 C23.2625938,68.5426403 23.1605552,72.2157115 25.3555465,74.5353018 C26.4176764,75.6591433 27.8554943,76.3005101 29.4023081,76.3445823 C29.456806,76.3469019 29.5113039,76.3469019 29.5658019,76.3469019 C31.0511605,76.3469019 32.4599901,75.7878806 33.5418321,74.7614619 L34.372056,73.97976 L36.5195065,76.2471595 C36.688798,76.4246081 37.4204618,77.0566965 37.9260171,77.3118514 C39.0542403,78.4542496 40.544237,79.041106 42.0423505,79.041106 C43.4720517,79.041106 44.9052314,78.5168786 46.0230188,77.4591454 L48.3699087,75.2346583 L52.1163518,79.1907196 C53.2213844,80.3586333 54.7137003,81 56.3196501,81 C57.8073277,81 59.2231145,80.4374994 60.303797,79.4122404 C61.4876777,78.2907185 62.1196218,76.7203559 62.0767192,75.066488 L62.3573256,74.8008949 L64.1893838,76.7331136 C65.2920974,77.8998676 66.7855727,78.5412343 68.3926821,78.5412343 C68.3950011,78.5412343 68.3950011,78.5412343 68.3950011,78.5412343 C69.8803597,78.5412343 71.2961465,77.9787336 72.3756695,76.9557943 C74.6947305,74.7579825 74.7956097,71.0849113 72.5982993,68.7664808 L71.1581624,67.2459893 C71.4816714,67.3016595 71.8121376,67.3318142 72.1460824,67.3318142 C72.1472419,67.3318142 72.1460824,67.3318142 72.1472419,67.3318142 C73.6210053,67.3318142 75.0205586,66.7739527 76.0861672,65.7614515 C77.5808021,64.3430221 78.1779603,62.2646691 77.711829,60.2593833 L82.4276397,55.7930122 L82.7070866,55.5274191 L82.7070866,55.5274191 L91.9670975,46.758208 C97.3623931,41.6527897 100.554581,34.9607717 100.958097,27.9208151 C101.362773,20.7648791 98.8257206,13.9058506 93.8072725,8.60326712 Z M8.936594,8.67517442 C18.8076775,-0.67509408 34.0636208,-0.891975773 44.1886415,7.73226096 C44.1932796,7.73690015 44.1955987,7.74385892 44.2002368,7.7473383 L45.7899532,9.23883487 C45.9441708,9.39424742 46.1076646,9.52878365 46.2584035,9.68767559 C46.2676798,9.69811374 46.2815942,9.70159313 46.2897109,9.71087149 L69.7203445,31.6971082 C71.9362074,33.7951776 72.0347675,37.3035579 69.9383363,39.5210862 C68.923747,40.5950566 67.5473843,41.2085882 66.0701424,41.249181 C64.5998576,41.3176089 63.1875495,40.7527887 62.1138242,39.7356483 L45.5267398,24.0413004 L45.1545305,24.2523831 C45.0977135,24.2860171 39.2780297,27.434861 30.9723124,19.5749292 C30.7392468,19.355728 30.3705161,19.3650063 30.1525243,19.5992849 C29.9345326,19.8335636 29.9426493,20.198899 30.1768745,20.4192601 C37.9515267,27.7781603 43.7851249,26.1034161 45.3307791,25.4527711 L49.5561084,29.4494252 L48.9218452,30.0525186 C48.9195261,30.0525186 48.9195261,30.0525186 48.9195261,30.0525186 L23.0388044,54.5555108 C22.7639957,54.8176245 22.5193348,55.1040939 22.3025026,55.4068004 C22.1343706,55.6433986 22.0033437,55.8973938 21.8769548,56.1525487 C21.8433285,56.2221364 21.7969472,56.281286 21.7633209,56.3520335 C21.4595238,57.0177559 21.2925515,57.7298701 21.2542869,58.4489431 L8.74527146,45.2388763 C-1.43772576,34.4829361 -1.3519205,18.4255723 8.936594,8.67517442 Z M27.5145923,64.5181511 L27.2479003,64.7709865 L27.0322276,64.5448264 C27.063535,64.5448264 27.0960018,64.5367078 27.1296282,64.535548 C27.2571766,64.5332285 27.3847249,64.5297491 27.5145923,64.5181511 Z M35.2185133,73.1899395 L36.3490555,72.1588816 C36.3223863,72.3108147 36.3247054,72.4639077 36.308472,72.6158409 C36.2864409,72.8060473 36.2586122,72.9939341 36.2562931,73.1864601 C36.253974,73.3639087 36.2794837,73.5390378 36.291079,73.7164865 C36.308472,73.911332 36.3154291,74.1050178 36.3502151,74.2975438 C36.3560127,74.3288583 36.3536937,74.3636521 36.3606508,74.3949666 L35.2185133,73.1899395 Z M59.5014019,78.5667498 C58.6363921,79.3867249 57.5046903,79.8378853 56.3150119,79.8378853 C55.0325712,79.8378853 53.8359356,79.324096 52.9546924,78.3904609 L49.2094088,74.4367192 L52.6497359,71.1776949 C52.6277048,71.3052723 52.6207476,71.4363292 52.6091523,71.5650665 C52.6068333,71.6021799 52.5998761,71.6416129 52.597557,71.6822058 C52.577845,71.9802731 52.5929189,72.2760209 52.6277048,72.5694491 C52.6358215,72.6239594 52.6404596,72.6761502 52.6497359,72.728341 C52.6949576,73.0159702 52.768008,73.3012798 52.8665681,73.5796306 C52.8839611,73.6306616 52.9036731,73.679373 52.9245446,73.7292442 C53.0335405,74.0122342 53.1668865,74.2894253 53.3350184,74.5584977 C53.3570495,74.5921318 53.3802401,74.6269256 53.4034307,74.6605597 C53.5866366,74.9412301 53.793033,75.2161016 54.0376939,75.4735761 C54.2730786,75.7229321 54.5270158,75.9398138 54.7902293,76.1323398 C54.9954662,76.2831131 55.2099793,76.3990926 55.4268115,76.5173917 C55.4766713,76.5417474 55.5230526,76.5765413 55.5729124,76.600897 C56.2512378,76.9360778 56.9736253,77.1193254 57.7134058,77.1193254 C58.1621441,77.1193254 58.6108824,77.0358202 59.0607803,76.9128819 C59.1048424,76.9001241 59.1500641,76.883887 59.1952858,76.8699695 C59.4457444,76.7957426 59.6950435,76.7122373 59.9420235,76.600897 C60.0916029,76.5313093 60.2388633,76.4396855 60.3861237,76.3584998 C60.5380222,76.2738348 60.6899207,76.2042471 60.837181,76.1045047 C60.8406596,76.1021851 60.8452978,76.0998655 60.8510954,76.0963861 C60.6632515,77.0381398 60.2005988,77.9010274 59.5014019,78.5667498 Z M71.5721148,76.1068243 C70.7094241,76.9267994 69.5777223,77.3779597 68.390363,77.3779597 C68.390363,77.3779597 68.390363,77.3779597 68.3880439,77.3779597 C67.1044436,77.3779597 65.9089676,76.8641705 65.0254054,75.9316952 L63.1956662,74.0006363 L63.6235329,73.5923884 L67.1786536,70.2289824 C67.1786536,70.2266628 67.1786536,70.2266628 67.1786536,70.2266628 L69.9221028,67.6298815 L71.7506825,69.5597806 C73.5085308,71.4131333 73.4262041,74.3508944 71.5721148,76.1068243 Z M75.2826125,64.9159609 C74.4326766,65.7231783 73.3160487,66.1673798 72.1402848,66.1673798 L72.1391252,66.1673798 C71.9269311,66.1673798 71.7193752,66.1534623 71.5095001,66.1256272 L72.8162911,64.8904454 L76.6995589,61.2127349 C76.8073952,62.5905716 76.3041589,63.9475319 75.2826125,64.9159609 Z M99.7974072,27.8523872 C99.4124431,34.596596 96.3466443,41.011423 91.1693405,45.9138771 L81.6275637,54.9475215 L61.97584,73.5541151 L61.97584,73.5517955 L60.9519746,74.5237039 C59.0630993,76.3132678 56.5179298,76.4106906 54.8737155,74.6733175 C53.2039915,72.909269 53.3964736,70.4736992 55.3537611,68.6133878 L55.3537611,68.6133878 L61.9480113,62.3702105 L70.1377755,54.6135005 C70.3708412,54.3942993 70.3801174,54.0266442 70.1621257,53.7935254 C69.9418149,53.5638859 69.5754032,53.5511282 69.3423376,53.7703295 L69.3203065,53.7912058 C69.3203065,53.7912058 69.3179874,53.7912058 69.3179874,53.7935254 L61.1490948,61.5270394 L54.5583232,67.7655775 C54.5560041,67.7667373 54.5548446,67.7690569 54.553685,67.7713765 L45.2171451,76.6101754 C43.3607367,78.367265 40.4236459,78.2849196 38.6692761,76.4315669 C36.9149064,74.5770545 36.9960736,71.6392933 38.8478439,69.8833635 L60.9148696,48.9931332 C61.1456162,48.7727722 61.1572115,48.4039573 60.9380602,48.1731581 C60.7189089,47.9400392 60.3513377,47.9284413 60.1182721,48.1488024 L60.0324668,48.2288282 C60.0324668,48.2311478 60.0278287,48.2311478 60.0278287,48.2334674 L33.9708584,72.7550163 L33.5627036,73.1249909 L33.5696608,73.1331095 L32.7405965,73.9124918 C31.8419603,74.7626217 30.6569201,75.2161016 29.4301368,75.1801479 C28.1940772,75.1465139 27.0426634,74.6315648 26.193887,73.7350432 C24.4383578,71.8782111 24.5206845,68.94045 26.3701357,67.1868398 L30.1884698,63.5914748 C30.4713952,63.4059076 30.7438849,63.2017836 30.9989816,62.961706 L55.7955422,39.4851326 L55.8071376,39.4735346 L55.8071376,39.4735346 L55.8082971,39.4712151 C55.82569,39.4549779 55.8326472,39.4329418 55.8477211,39.4143851 C55.9810671,39.2520138 56.0239698,39.0386115 55.9532384,38.8484051 C55.9520789,38.8460855 55.9520789,38.8460855 55.9520789,38.8460855 C55.9254097,38.775338 55.8859856,38.7103894 55.8314877,38.6535595 C55.8314877,38.6535595 55.8314877,38.6535595 55.8291686,38.6535595 L55.8291686,38.6512399 C55.8024994,38.622245 55.7642349,38.6060079 55.7317681,38.5816522 C55.7027798,38.5596161 55.6737915,38.5329408 55.6413247,38.5167036 C55.6088578,38.5027861 55.5705933,38.5027861 55.5369669,38.4923479 C55.4987024,38.4842294 55.4639165,38.4679922 55.4244925,38.4679922 C55.3966637,38.4679922 55.368835,38.4784304 55.3421658,38.4819098 C55.2969441,38.4877088 55.2494034,38.4888686 55.2065007,38.5051057 C55.1821506,38.5143841 55.1635981,38.5329408 55.1404075,38.5456985 C55.0963453,38.5700542 55.0488046,38.5897707 55.0116996,38.6257244 L29.4730394,62.6717572 C28.9164648,63.0208556 28.2891587,63.244696 27.6386621,63.3293611 C27.614312,63.3328405 27.5899618,63.3316807 27.5667712,63.3340003 C27.2745695,63.3676343 26.9765702,63.3745931 26.6808899,63.3560364 C26.6147966,63.3513972 26.554501,63.3374797 26.4884078,63.3316807 C26.2367897,63.3050054 25.9851716,63.2551342 25.7405106,63.1843867 C24.9705823,62.9651854 24.2435567,62.5604169 23.6545152,61.9387667 C23.1628742,61.4203383 22.8300889,60.8126056 22.624852,60.1747183 L22.5599183,59.9276819 C22.4057008,59.3454647 22.375553,58.7539692 22.4439653,58.1787108 C22.4509225,58.1242005 22.4555606,58.0685303 22.4648368,58.0140199 C22.489187,57.8539682 22.5228134,57.6985556 22.5645565,57.5408235 C22.5958638,57.4213646 22.6364473,57.3065449 22.6805095,57.1882458 C22.7373265,57.0270342 22.8011007,56.8716217 22.8753106,56.7162091 C22.9576373,56.546879 23.0480807,56.3798685 23.1524384,56.218657 C23.1999792,56.1467497 23.2509985,56.0748424 23.3020179,56.0029351 C23.4620331,55.7872132 23.6313246,55.5796099 23.8319233,55.3894035 L50.3956085,30.2404054 L61.3160672,40.5707009 C62.5683601,41.7560115 64.1917029,42.4031772 65.9112867,42.4031772 C65.9750609,42.4031772 66.0376755,42.4031772 66.1014497,42.4008576 C67.8894458,42.3509864 69.5510531,41.6063979 70.7801554,40.3085871 C73.3172083,37.6271408 73.1977766,33.3811307 70.5146229,30.8434989 L51.0808911,12.6080398 L55.6424842,8.37478748 C66.2116051,-1.63540446 82.9552261,-1.17728538 92.9642938,9.39656701 C97.7612716,14.4683512 100.18701,21.0211938 99.7974072,27.8523872 Z" id="Shape"></path>
                </g>
            </g>
        </g>
    </g>
</svg>